# xmcd
#
# Track frame offsets: 
#        150
#        19268
#        45618
#        71323
#
# Disc length: 1180 seconds
#
# Revision: 1
# Processed by: cddbd v1.5.2PL0 Copyright (c) Steve Scherf et al.
# Submitted via: ExactAudioCopy v1.3
#
DISCID=2b049a04
DTITLE=En Vogue - Lies [CDM Germany)
DYEAR=1990
DGENRE=R&B
TTITLE0=Lies (The Avant Garde Funky Remix)
TTITLE1=Lies (Extended Funky Remix)
TTITLE2=Lies (The Extended Avant Garde Remix)
TTITLE3=Lies (LP Version)
EXTD=
EXTT0=
EXTT1=
EXTT2=
EXTT3=
PLAYORDER=
